<svg version="1.1" xmlns="http://www.w3.org/2000/svg" data-icon="social-twitter" width="16" height="16" class="iconic iconic-social iconic-size-sm iconic-social-twitter" viewBox="0 0 16 16">
  <g>
    <title>Social Twitter</title>
  </g>
  <!-- Dribbble -->
  <!-- Dropbox -->
  <!-- Facebook -->
  <!-- Flickr -->
  <!-- Github -->
  <!-- Google Plus -->
  <!-- Instagram -->
  <!-- LinkedIn -->
  <!-- Pinterest -->
  <!-- Reddit -->
  <!-- Tumblr -->
  <!-- Twitter -->
  <!-- Dribbble -->
  <!-- Dropbox -->
  <!-- Facebook -->
  <!-- Flickr -->
  <!-- Github -->
  <!-- Google Plus -->
  <!-- Instagram -->
  <!-- LinkedIn -->
  <!-- Pinterest -->
  <!-- Reddit -->
  <!-- Tumblr -->
  <!-- Twitter -->
  <!-- Vimeo -->
  <!-- YouTube -->
  <!-- Dribbble -->
  <!-- Dropbox -->
  <!-- Facebook -->
  <!-- Flickr -->
  <!-- Github -->
  <!-- Google Plus -->
  <!-- Instagram -->
  <!-- LinkedIn -->
  <!-- Pinterest -->
  <!-- Reddit -->
  <!-- Tumblr -->
  <!-- Twitter -->
  <g data-width="16" data-height="13" class="iconic-container iconic-social-twitter" transform="scale(1 1 ) translate(0 1 ) ">
    <path d="M5.032 13c-1.854 0-3.579-.543-5.032-1.474.257.03.518.046.783.046 1.538 0 2.953-.525 4.077-1.405-1.437-.027-2.649-.975-3.067-2.279.2.038.406.059.618.059.299 0 .589-.04.865-.115-1.502-.301-2.633-1.628-2.633-3.218 0-.014 0-.028 0-.041.443.246.949.393 1.487.41-.881-.589-1.46-1.593-1.46-2.732 0-.601.162-1.165.444-1.65 1.619 1.986 4.038 3.292 6.766 3.429-.056-.24-.085-.491-.085-.748 0-1.812 1.47-3.282 3.283-3.282.944 0 1.797.399 2.396 1.036.748-.147 1.45-.42 2.084-.796-.245.766-.766 1.409-1.443 1.816.664-.079 1.297-.256 1.885-.517-.44.658-.997 1.236-1.638 1.699.006.141.009.282.009.425 0 4.337-3.302 9.338-9.34 9.338"
    class="iconic-property-fill"></path>
  </g>
  <!-- Vimeo -->
  <!-- YouTube -->
</svg>