<svg version="1.1" xmlns="http://www.w3.org/2000/svg" data-icon="social-github" width="16" height="16" class="iconic iconic-social iconic-size-sm iconic-social-github" viewBox="0 0 16 16">
  <g>
    <title>Social Github</title>
  </g>
  <!-- Dribbble -->
  <!-- Dropbox -->
  <!-- Facebook -->
  <!-- Flickr -->
  <!-- Github -->
  <!-- Google Plus -->
  <!-- Instagram -->
  <!-- LinkedIn -->
  <!-- Pinterest -->
  <!-- Reddit -->
  <!-- Tumblr -->
  <!-- Twitter -->
  <!-- Dribbble -->
  <!-- Dropbox -->
  <!-- Facebook -->
  <!-- Flickr -->
  <!-- Github -->
  <!-- Google Plus -->
  <!-- Instagram -->
  <!-- LinkedIn -->
  <!-- Pinterest -->
  <!-- Reddit -->
  <!-- Tumblr -->
  <!-- Twitter -->
  <!-- Vimeo -->
  <!-- YouTube -->
  <!-- Dribbble -->
  <!-- Dropbox -->
  <!-- Facebook -->
  <!-- Flickr -->
  <!-- Github -->
  <g data-width="16" data-height="16" class="iconic-container iconic-social-github" transform="scale(1 1 ) translate(0 ) ">
    <path fill-rule="evenodd" clip-rule="evenodd" d="M8 0c-4.417 0-8 3.582-8 8.001 0 3.534 2.292 6.533 5.471 7.591.4.073.546-.174.546-.386 0-.19-.007-.693-.011-1.361-2.225.483-2.695-1.072-2.695-1.072-.364-.924-.888-1.17-.888-1.17-.726-.496.055-.486.055-.486.803.057 1.225.824 1.225.824.714 1.222 1.872.87 2.328.665.073-.517.279-.87.508-1.069-1.776-.202-3.644-.888-3.644-3.954 0-.873.312-1.587.823-2.147-.082-.203-.357-1.016.078-2.117 0 0 .672-.215 2.2.82.638-.177 1.323-.266 2.003-.269.679.003 1.364.092 2.003.269 1.527-1.035 2.198-.82 2.198-.82.436 1.101.162 1.915.08 2.117.513.559.822 1.273.822 2.147 0 3.073-1.871 3.749-3.653 3.948.287.247.543.735.543 1.482 0 1.069-.01 1.932-.01 2.195 0 .214.144.463.55.385 3.176-1.06 5.466-4.057 5.466-7.59 0-4.419-3.582-8.001-8-8.001z"
    class="iconic-property-fill"></path>
  </g>
  <!-- Google Plus -->
  <!-- Instagram -->
  <!-- LinkedIn -->
  <!-- Pinterest -->
  <!-- Reddit -->
  <!-- Tumblr -->
  <!-- Twitter -->
  <!-- Vimeo -->
  <!-- YouTube -->
</svg>