<?xml version="1.0" standalone="no"?>
<!DOCTYPE svg PUBLIC "-//W3C//DTD SVG 20010904//EN"
 "http://www.w3.org/TR/2001/REC-SVG-20010904/DTD/svg10.dtd">
<svg version="1.0" xmlns="http://www.w3.org/2000/svg"
 width="500.000000pt" height="500.000000pt" viewBox="0 0 500.000000 500.000000"
 preserveAspectRatio="xMidYMid meet">
<metadata>
Created by potrace 1.11, written by Peter Selinger 2001-2013
</metadata>
<g transform="translate(0.000000,500.000000) scale(0.100000,-0.100000)"
fill="#000000" stroke="none">
<path d="M2265 3918 c-27 -10 -455 -170 -950 -355 -495 -184 -908 -343 -917
-352 -29 -27 -318 -672 -318 -708 0 -19 8 -39 19 -50 18 -16 2003 -1291 2110
-1355 56 -34 82 -35 115 -5 20 18 43 84 121 352 54 182 98 331 100 333 1 2 87
-144 190 -323 103 -179 197 -332 208 -340 12 -8 32 -15 44 -15 12 0 447 244
967 541 945 542 966 555 966 605 0 19 -365 657 -385 674 -7 6 -352 103 -766
215 -413 112 -754 207 -757 210 -3 3 6 47 21 98 30 103 33 145 15 170 -16 20
-688 327 -714 326 -10 -1 -41 -10 -69 -21z m304 -260 c100 -45 178 -85 174
-89 -11 -9 -525 -201 -529 -197 -5 5 160 367 168 368 3 0 88 -37 187 -82z
m-428 -20 c-91 -203 -134 -294 -141 -301 -7 -8 -370 151 -370 162 0 6 516 200
532 201 4 0 -6 -28 -21 -62z m707 -230 c-2 -7 -123 -417 -268 -910 -145 -494
-265 -896 -267 -895 -3 4 -34 275 -123 1062 -28 248 -51 459 -53 470 -2 17 43
36 348 151 193 73 354 132 359 133 4 1 6 -5 4 -11z m-1211 -106 c95 -42 172
-79 172 -82 1 -7 -530 -203 -535 -198 -2 3 33 86 79 186 62 138 86 181 97 177
8 -3 92 -40 187 -83z m-495 -140 l-85 -189 -186 85 c-102 46 -187 85 -189 87
-3 2 528 204 539 205 4 0 -32 -85 -79 -188z m2071 -43 c42 -12 77 -24 77 -28
-1 -4 -320 -190 -360 -209 -3 -1 -14 13 -24 32 -18 34 -18 35 13 143 18 59 34
113 36 120 3 8 29 5 92 -13 48 -13 123 -34 166 -45z m-1243 -38 c0 -6 23 -209
50 -453 91 -799 128 -1133 126 -1135 -1 -2 -514 741 -837 1213 l-77 112 362
135 c198 74 364 136 369 136 4 1 7 -3 7 -8z m-1323 -110 c82 -38 167 -77 189
-86 l39 -17 -260 -98 c-143 -53 -268 -101 -277 -105 -13 -5 0 32 48 136 36 79
75 165 86 192 11 26 21 47 23 47 1 0 69 -31 152 -69z m2941 -143 c56 -100 100
-183 98 -185 -5 -5 -557 144 -565 153 -3 4 -1 8 4 10 6 2 87 49 180 103 94 54
172 99 175 100 3 0 51 -81 108 -181z m401 80 c149 -40 271 -75 271 -78 0 -7
-360 -213 -364 -209 -10 13 -206 358 -206 364 0 4 6 5 14 2 8 -3 136 -39 285
-79z m-2527 -728 c213 -311 413 -600 443 -642 30 -43 52 -78 50 -78 -4 0
-1542 983 -1588 1015 -15 11 31 31 330 143 191 72 354 130 362 129 8 -1 189
-256 403 -567z m3094 388 c55 -95 100 -178 102 -184 2 -6 -124 23 -278 65
-155 43 -280 81 -279 87 3 10 328 202 345 203 7 1 56 -77 110 -171z m-1732 22
c7 -92 17 -262 41 -710 8 -157 17 -297 20 -312 2 -16 1 -28 -3 -28 -4 0 -67
104 -140 231 l-132 231 95 327 c107 364 104 355 109 350 2 -2 7 -42 10 -89z
m546 -35 c195 -53 357 -98 359 -101 2 -2 -146 -230 -330 -506 -183 -277 -335
-505 -336 -507 -2 -2 -5 -2 -7 0 -5 6 -74 1202 -69 1211 2 4 9 5 16 3 7 -2
172 -47 367 -100z m903 -245 c191 -52 344 -97 340 -101 -15 -14 -1353 -778
-1353 -772 0 17 645 973 654 970 6 -2 167 -46 359 -97z"/>
</g>
</svg>
